<svg 
	version="1.1" 
	id="Layer_1"
	xmlns="http://www.w3.org/2000/svg" 
	xmlns:xlink="http://www.w3.org/1999/xlink" 
	x="0px" 
	y="0px"
	width="100%" 
	viewBox="0 0 624 480" enable-background="new 0 0 624 480" xml:space="preserve"
>
<path fill="#ff204e" opacity="1.000000" stroke="none" 
	d="
M187.721298,428.773987 
	C178.925171,431.979248 170.867661,436.074799 161.855209,437.507050 
	C153.167328,438.887787 145.329254,437.163788 138.204391,432.066803 
	C135.900482,430.418701 133.599518,428.764191 131.345322,427.049347 
	C125.994301,422.978607 120.132118,422.286560 113.852028,424.338806 
	C104.837105,427.284698 95.946030,430.642731 86.583603,432.417999 
	C67.340698,436.066742 49.805882,419.904846 54.345623,400.891388 
	C57.632839,387.123840 55.956837,375.854523 48.550705,364.043091 
	C42.089233,353.738190 45.079372,337.409607 53.227871,328.009277 
	C61.887100,318.019775 62.721313,311.845245 56.722889,299.786560 
	C50.935688,288.152466 44.693283,276.725739 42.386158,263.704193 
	C40.531231,253.234924 42.173061,243.507416 48.107525,234.581375 
	C50.874615,230.419327 53.440964,226.119812 56.303101,222.025787 
	C62.773129,212.770996 63.277119,202.900711 59.768017,192.495148 
	C56.993725,184.268524 53.413918,176.387497 49.724373,168.547333 
	C46.274982,161.217514 44.254375,153.627991 44.568722,145.384659 
	C44.910496,136.422195 48.307293,129.386734 55.728172,124.203529 
	C64.539589,118.049095 66.184219,113.222961 63.845509,102.794685 
	C62.052273,94.798653 59.064232,87.209396 56.423691,79.493118 
	C52.353531,67.599152 55.612995,61.115780 67.427139,57.166759 
	C75.020401,54.628613 82.544258,53.771767 90.400253,56.566139 
	C95.386620,58.339783 100.693428,59.299751 105.920128,60.288395 
	C112.438072,61.521290 118.829918,60.885223 125.029396,58.299828 
	C132.255356,55.286354 139.563980,52.471745 146.819061,49.527298 
	C153.855118,46.671753 160.811966,46.724918 167.573410,50.238758 
	C172.001740,52.540112 176.393204,54.948463 180.614517,57.605453 
	C193.598846,65.778076 209.442032,68.269798 223.188568,56.543110 
	C233.301514,47.916145 244.979858,46.928345 257.538666,50.348854 
	C270.584381,53.901970 282.573395,59.648460 293.380585,67.553375 
	C299.321472,71.898842 305.054230,72.540512 311.651825,70.337006 
	C317.360535,68.430382 322.808624,65.940239 328.166779,63.239967 
	C340.241699,57.154724 352.066681,57.659973 363.181488,65.272202 
	C373.659607,72.448418 384.411469,73.774979 396.345428,69.397820 
	C407.016266,65.483955 418.019165,63.113369 429.618439,64.577232 
	C436.639862,65.463348 442.531342,68.510040 448.449738,72.049561 
	C458.009918,77.767075 468.142212,81.916054 479.643738,79.426712 
	C485.443115,78.171516 490.171478,74.561684 495.128052,71.483658 
	C505.169586,65.247940 515.755066,62.178753 527.435913,66.585045 
	C533.878906,69.015495 538.781799,73.496277 543.078552,78.667496 
	C549.043640,85.846642 552.546021,86.944527 561.378235,84.235428 
	C565.347168,83.018036 569.080872,81.133873 573.279236,80.542213 
	C584.032715,79.026787 592.258789,85.548943 593.297974,96.352982 
	C594.555786,109.429817 591.311523,120.456924 581.007996,129.493378 
	C571.956543,137.431732 570.779724,154.162018 577.485352,164.084869 
	C580.003845,167.811661 582.484436,171.574646 584.769226,175.446808 
	C591.233643,186.402328 590.267456,196.171402 582.093567,205.805069 
	C578.647888,209.866058 575.385681,214.087204 572.139954,218.312195 
	C567.202942,224.738571 566.811768,231.813080 569.735107,239.108337 
	C572.602356,246.263702 576.995117,252.586197 581.236938,258.967987 
	C584.524841,263.914551 586.494751,269.301025 587.321045,275.185730 
	C588.694580,284.968048 585.017639,292.780792 578.209167,299.447144 
	C577.019226,300.612274 575.758850,301.705078 574.556152,302.857574 
	C564.504700,312.489685 564.749451,321.524963 575.501709,330.615265 
	C578.983459,333.558838 582.068848,336.682983 584.180115,340.786011 
	C588.882019,349.923523 588.053223,358.789246 583.087830,367.473145 
	C581.851013,369.636200 580.332031,371.640808 578.901428,373.689423 
	C575.261475,378.901581 575.064636,382.538696 578.611145,387.939148 
	C581.901489,392.949677 585.662170,397.657776 588.842957,402.732727 
	C595.750732,413.753998 594.763062,421.132019 585.450684,430.334717 
	C583.794495,431.971436 582.028503,433.510681 580.213074,434.970367 
	C570.800659,442.538300 564.230713,442.993866 553.627319,437.118195 
	C539.501221,429.290497 540.630676,425.570831 522.660156,438.430939 
	C511.268280,446.583221 497.766541,446.189911 485.184570,437.957245 
	C480.168427,434.675110 475.335571,431.127930 469.989594,428.342529 
	C462.330383,424.351837 454.902496,424.836121 447.680298,429.213501 
	C444.125732,431.367950 440.714081,433.784729 437.385193,436.279541 
	C429.421234,442.248138 420.866791,442.994720 411.926453,439.097656 
	C406.283447,436.637909 400.848022,433.703186 395.310455,431.000000 
	C386.224426,426.564667 377.694427,427.464478 369.403076,433.265991 
	C360.310883,439.627869 350.574249,444.529480 339.216553,445.502594 
	C331.205658,446.188904 323.993011,444.019379 318.841095,438.111603 
	C305.239624,422.514587 292.176971,420.135498 271.983398,430.315247 
	C261.599670,435.549805 250.915909,439.422607 238.894241,437.436157 
	C234.175278,436.656403 229.727173,435.236664 225.945099,432.491852 
	C214.005676,423.827026 201.394409,423.148315 187.721298,428.773987 
M228.458282,62.982491 
	C212.077133,77.843124 190.501328,74.422211 176.245316,64.801735 
	C172.533188,62.296658 168.484818,60.281948 164.548950,58.118305 
	C159.692871,55.448788 154.667068,55.461094 149.601654,57.466305 
	C143.872910,59.734108 137.989319,61.702400 132.488113,64.435150 
	C119.028954,71.121048 105.483376,70.476410 91.756241,65.716080 
	C85.336662,63.489887 78.936592,62.448154 72.193092,64.441887 
	C62.934353,67.179268 61.329166,70.016724 64.866798,78.951576 
	C67.993561,86.848724 71.152657,94.695595 72.642555,103.139313 
	C74.677887,114.674194 71.307625,123.848656 61.414989,130.351013 
	C53.576256,135.503342 51.678658,142.991791 52.935360,151.674332 
	C53.655151,156.647369 55.506882,161.283600 57.537796,165.880569 
	C61.035561,173.797760 64.594429,181.711670 67.563721,189.833145 
	C72.251961,202.656235 71.180565,215.024185 63.382915,226.544891 
	C60.488300,230.821564 57.813675,235.249222 54.860371,239.483643 
	C49.608150,247.014099 48.927700,255.235718 51.076687,263.834412 
	C52.123646,268.023590 53.625721,272.099457 54.933792,276.222809 
	C57.622089,284.696960 62.854713,292.006073 66.010063,300.251038 
	C70.324127,311.523743 69.404747,322.020386 61.209057,331.529846 
	C51.673859,342.593536 51.044136,353.795105 58.962715,366.265747 
	C64.779297,375.425995 67.371712,385.022308 63.609303,395.711365 
	C62.844753,397.883423 62.482151,400.241150 62.239178,402.545441 
	C60.726574,416.890442 72.026619,426.907257 86.083542,423.827240 
	C92.604485,422.398468 99.167259,420.904846 105.240250,418.232452 
	C118.204666,412.527496 129.817551,413.991516 140.559357,423.245697 
	C149.967758,431.351227 160.510361,430.756989 171.027039,426.197388 
	C178.239197,423.070404 185.559433,420.407745 193.095093,418.289429 
	C205.696228,414.747192 217.375244,416.432190 228.260208,424.078308 
	C234.888092,428.734009 242.385574,430.338959 250.579254,428.935272 
	C260.455597,427.243317 268.968689,422.127502 278.085022,418.548981 
	C294.396759,412.145874 311.440918,416.302063 322.699219,429.777618 
	C326.927948,434.839081 332.193085,437.374054 338.902496,436.969482 
	C348.280396,436.404053 356.166016,432.248779 363.553558,426.944214 
	C375.354462,418.470734 387.726715,417.295715 400.737122,423.767517 
	C403.412170,425.098114 405.871063,426.857300 408.467163,428.353699 
	C417.890656,433.785553 426.403290,435.197174 435.610229,427.206268 
	C437.855774,425.257294 440.543457,423.803864 443.082001,422.208771 
	C453.641693,415.573730 464.358948,415.203796 475.151215,421.605865 
	C480.308624,424.665253 485.352722,427.915283 490.499084,430.993774 
	C501.781830,437.742950 510.031158,437.305695 520.588196,429.680847 
	C523.550110,427.541626 526.656006,425.553131 529.873718,423.827240 
	C535.891663,420.599396 541.987000,420.590820 547.968079,424.099823 
	C550.411072,425.532990 552.883423,426.917664 555.302063,428.390594 
	C565.357727,434.514618 569.914185,433.902374 578.039124,425.284851 
	C579.182190,424.072479 580.318176,422.853455 581.460999,421.640900 
	C585.654480,417.191589 586.153137,413.911957 582.784180,408.701508 
	C579.623352,403.812958 576.114990,399.145203 572.677368,394.440369 
	C566.242615,385.633667 566.064148,377.510559 572.161499,368.596375 
	C573.664429,366.399170 575.259338,364.237244 576.501587,361.894562 
	C580.362305,354.613770 579.425354,346.690674 573.914124,340.577301 
	C571.241699,337.612885 568.351685,334.822876 565.381775,332.152313 
	C556.429077,324.101990 555.228394,315.299713 561.676392,305.090057 
	C564.931396,299.936188 569.555908,296.080963 573.740356,291.801147 
	C577.365173,288.093658 580.059998,283.804230 579.488525,278.488922 
	C578.956665,273.542542 577.634766,268.723419 574.882507,264.366791 
	C570.970276,258.173981 567.006165,251.982605 563.598450,245.509399 
	C557.752380,234.404556 557.943176,223.456497 565.693604,213.116348 
	C567.691101,210.451447 569.507751,207.622879 571.727173,205.157303 
	C582.046875,193.693329 585.085571,189.776886 573.091187,172.422775 
	C569.975708,167.915131 566.644165,163.424118 565.755432,157.800888 
	C563.540649,143.787872 566.487671,131.390015 577.169434,121.363937 
	C584.767151,114.232613 587.063416,105.465675 584.675293,95.401642 
	C583.581726,90.793251 580.557495,88.783287 575.922546,88.959419 
	C572.014709,89.107925 568.463318,90.604927 564.867676,91.898300 
	C552.276489,96.427391 545.131348,94.468117 536.688782,84.103935 
	C526.514465,71.613815 514.826965,69.598854 500.919708,77.947128 
	C497.492126,80.004631 494.160187,82.236801 490.644501,84.128983 
	C482.957947,88.265945 474.853027,90.007538 466.066956,88.507568 
	C457.988739,87.128441 450.897400,83.654793 444.146881,79.255318 
	C439.656586,76.328888 435.041382,73.871384 429.564728,73.095398 
	C419.007996,71.599632 408.968506,73.701759 399.248627,77.360580 
	C384.873444,82.771820 371.582397,81.279045 358.934692,72.550476 
	C350.214050,66.532104 340.990814,66.337479 331.481232,70.845718 
	C325.917877,73.483162 320.321716,76.101051 314.572418,78.285980 
	C304.143677,82.249283 293.980499,81.445961 285.481781,73.930382 
	C276.021057,65.564049 264.712524,61.661377 253.005280,58.129726 
	C244.107803,55.445683 236.266876,56.942974 228.458282,62.982491 
z"/>
</svg>